<?xml version="1.0" encoding="utf-8"?>
<!-- Generator: Adobe Illustrator 16.0.4, SVG Export Plug-In . SVG Version: 6.00 Build 0)  -->
<!DOCTYPE svg PUBLIC "-//W3C//DTD SVG 1.1//EN" "http://www.w3.org/Graphics/SVG/1.1/DTD/svg11.dtd">
<svg version="1.1" id="Layer_1" xmlns="http://www.w3.org/2000/svg" xmlns:xlink="http://www.w3.org/1999/xlink" x="0px" y="0px"
	 width="39px" height="39px" viewBox="0 0 39 39" enable-background="new 0 0 39 39" xml:space="preserve">
<g>
	<g>
		<path fill="#1B3B1C" stroke="#1B3B1C" stroke-width="4" stroke-miterlimit="10" d="M23.668,15.945c0,0.921-1.91,2.41-4.265,2.41
			c-2.357,0-4.267-1.489-4.267-2.41c0-0.923,1.91-1.671,4.267-1.671C21.758,14.274,23.668,15.022,23.668,15.945z"/>
		<path fill="none" stroke="#1B3B1C" stroke-width="2" stroke-miterlimit="10" d="M19.357,21.074
			c-0.503,2.447-1.294,4.514-2.273,5.966c0.411,1.839,1.232,3.097,2.18,3.097c0.984,0,1.832-1.358,2.222-3.318
			C20.574,25.383,19.833,23.402,19.357,21.074z"/>
		<path fill="none" stroke="#1B3B1C" stroke-width="3" stroke-miterlimit="10" d="M7.77,18.788
			c0.734,6.044,3.129,10.479,5.976,10.479c2.478,0,4.612-3.369,5.611-8.228c0.997,4.858,3.129,8.228,5.612,8.228
			c2.846,0,5.238-4.435,5.973-10.479"/>
		
			<ellipse fill="#1B3B1C" stroke="#1B3B1C" stroke-width="2" stroke-miterlimit="10" cx="13.219" cy="8.655" rx="0.896" ry="2.473"/>
		
			<ellipse fill="#1B3B1C" stroke="#1B3B1C" stroke-width="2" stroke-miterlimit="10" cx="25.483" cy="8.655" rx="0.897" ry="2.473"/>
		<line fill="#1B3B1C" stroke="#1B3B1C" stroke-miterlimit="10" x1="19.372" y1="22.406" x2="19.372" y2="16.779"/>
		<g>
			<g>
				<path fill="#1B3B1C" d="M13.281,0.288c-1.833,0.062-3.228,1.458-3.29,3.291c-0.054,1.613,2.446,1.608,2.5,0
					c0.015-0.448,0.343-0.776,0.79-0.791C14.889,2.734,14.894,0.233,13.281,0.288L13.281,0.288z"/>
			</g>
		</g>
		<g>
			<g>
				<path fill="#1B3B1C" d="M28.738,3.579c-0.062-1.833-1.456-3.229-3.289-3.291c-1.613-0.054-1.607,2.446,0,2.5
					c0.447,0.015,0.774,0.343,0.789,0.791C26.292,5.187,28.793,5.192,28.738,3.579L28.738,3.579z"/>
			</g>
		</g>
		<path fill="#1B3B1C" stroke="#1B3B1C" stroke-width="2" stroke-miterlimit="10" d="M37.5,10.119
			c0.795,3.106,0.498,5.865-0.662,6.162s-2.818-1.965-3.535-5.091c-0.695-3.026-0.379-6.161-0.379-6.161
			C34.084,4.733,36.707,7.012,37.5,10.119z"/>
		<path fill="#1B3B1C" stroke="#1B3B1C" stroke-width="2" stroke-miterlimit="10" d="M1.498,10.249
			C0.704,13.356,1,16.115,2.16,16.411c1.16,0.297,2.818-1.965,3.536-5.091c0.695-3.027,0.377-6.161,0.377-6.161
			C4.914,4.862,2.291,7.141,1.498,10.249z"/>
	</g>
	<text transform="matrix(0.8659 0 0 1 0.4458 37.3691)" fill="#1B3B1C" font-family="'Nunito-Black'" font-size="7.5">Rent-A-Dog</text>
</g>
</svg>
